<svg width="27" height="27" viewBox="0 0 27 27" fill="none" xmlns="http://www.w3.org/2000/svg">
<rect x="1" y="1" width="25" height="25" rx="4" fill="none" stroke="#2196F3" stroke-width="2"/>
<path fill-rule="evenodd" clip-rule="evenodd" d="M18.5119 8.38689C18.748 8.15279 19.0668 8.02103 19.3994 8.02012C19.7319 8.0192 20.0514 8.14919 20.2889 8.38199C20.5263 8.61478 20.6626 8.93168 20.6683 9.26417C20.674 9.59665 20.5486 9.91801 20.3192 10.1588L13.5827 18.5794C13.4669 18.7041 13.3272 18.8042 13.1718 18.8736C13.0165 18.9431 12.8487 18.9805 12.6786 18.9837C12.5085 18.9868 12.3394 18.9556 12.1816 18.892C12.0238 18.8283 11.8805 18.7335 11.7602 18.6131L7.29674 14.148C7.17239 14.0321 7.07266 13.8924 7.00349 13.7372C6.93431 13.5819 6.89712 13.4143 6.89412 13.2444C6.89112 13.0745 6.92238 12.9057 6.98603 12.7481C7.04969 12.5905 7.14443 12.4473 7.26461 12.3271C7.3848 12.207 7.52795 12.1122 7.68555 12.0486C7.84314 11.9849 8.01194 11.9536 8.18187 11.9566C8.35181 11.9596 8.5194 11.9968 8.67465 12.066C8.8299 12.1352 8.96962 12.2349 9.08549 12.3593L12.6191 15.8912L18.4798 8.42402C18.4903 8.41094 18.5015 8.39854 18.5136 8.38689H18.5119Z" fill="#2196F3"/>
</svg>
