<svg width="100" height="100" viewBox="0 0 100 100" fill="none" xmlns="http://www.w3.org/2000/svg">
<path d="M88.8889 36.6667V74.5278L68.4444 54.0833L64.5278 58L84.6111 78.1111H15.7222L35.1667 58L31.1667 54.1389L11.1111 74.8889V26.7778L45.6389 61.1389C46.6798 62.1736 48.0878 62.7544 49.5555 62.7544C51.0232 62.7544 52.4313 62.1736 53.4722 61.1389L78 36.75C76.0425 36.2391 74.1707 35.4436 72.4444 34.3889L49.5 57.1944L14.75 22.5556H63.3611C62.824 20.7512 62.5344 18.8823 62.5 17H11.1111C9.63767 17 8.22459 17.5853 7.18273 18.6272C6.14086 19.6691 5.55554 21.0821 5.55554 22.5556V78.1111C5.55554 79.5845 6.14086 80.9976 7.18273 82.0395C8.22459 83.0813 9.63767 83.6667 11.1111 83.6667H88.8889C90.3623 83.6667 91.7754 83.0813 92.8172 82.0395C93.8591 80.9976 94.4444 79.5845 94.4444 78.1111V34.2222C92.7228 35.3057 90.8508 36.1293 88.8889 36.6667Z" fill="#323232"/>
<path d="M83.3333 30.1669C91.004 30.1669 97.2222 23.9487 97.2222 16.278C97.2222 8.60743 91.004 2.38916 83.3333 2.38916C75.6627 2.38916 69.4445 8.60743 69.4445 16.278C69.4445 23.9487 75.6627 30.1669 83.3333 30.1669Z" fill="#2196F3"/>
</svg>
