<svg width="32" height="32" viewBox="0 0 32 32" fill="none" xmlns="http://www.w3.org/2000/svg">
<path d="M29.1063 15.5906L2.96568 2.48437C2.85943 2.43124 2.73755 2.41874 2.62193 2.44687C2.3563 2.51249 2.19068 2.78124 2.2563 3.04999L4.95005 14.0562C4.99068 14.2219 5.11255 14.3562 5.27505 14.4094L9.89068 15.9937L5.27818 17.5781C5.11568 17.6344 4.9938 17.7656 4.9563 17.9312L2.2563 28.9531C2.22818 29.0687 2.24068 29.1906 2.2938 29.2937C2.41568 29.5406 2.71568 29.6406 2.96568 29.5187L29.1063 16.4875C29.2032 16.4406 29.2813 16.3594 29.3313 16.2656C29.4532 16.0156 29.3532 15.7156 29.1063 15.5906ZM5.33755 25.8219L6.90943 19.3969L16.1344 16.2312C16.2063 16.2062 16.2657 16.15 16.2907 16.075C16.3344 15.9437 16.2657 15.8031 16.1344 15.7562L6.90943 12.5937L5.3438 6.19374L24.9688 16.0344L5.33755 25.8219V25.8219Z" fill="#F4F4F4"/>
</svg>
